<?xml version="1.0" encoding="utf-8"?>
<!-- Generator: Adobe Illustrator 22.0.1, SVG Export Plug-In . SVG Version: 6.00 Build 0)  -->
<svg version="1.1" id="Layer_1" xmlns="http://www.w3.org/2000/svg" xmlns:xlink="http://www.w3.org/1999/xlink" x="0px" y="0px"
	 viewBox="0 0 1000 1000" style="enable-background:new 0 0 1000 1000;" xml:space="preserve">
<style type="text/css">
	.st0{fill:#E85850;}
	.st1{fill:#102541;}
	.st2{fill:#FFFFFF;}
</style>
<path class="st0" d="M911.8,1000H88.2c-49.2,0-89.5-40.3-89.5-89.5v-821C-1.3,40.3,39,0,88.2,0h823.6c49.2,0,89.5,40.3,89.5,89.5
	v821C1001.3,959.7,961,1000,911.8,1000z"/>
<path class="st1" d="M910.5,3149.4H89c-49.1,0-89.3-40.2-89.3-89.3v-839c0-49.1,40.2-89.3,89.3-89.3h821.5
	c49.1,0,89.3,40.2,89.3,89.3v839C999.8,3109.3,959.6,3149.4,910.5,3149.4z"/>
<path class="st2" d="M784.8,2448.7c-20.1-0.6-33,11-38.8,38.2L651,2786c-9.1,27.8,3.9,46.6,26.5,47.9c20.1,0.6,33-11,38.8-38.2
	l95-299.2C820.4,2468.7,807.4,2449.9,784.8,2448.7z"/>
<path class="st0" d="M536.1,2446.4c-16.8,0-29.1,12.3-29.1,29.1v262.2l-208.7-254.3c-14.3-20-30.7-37.7-50.8-37.7
	c-21.4,0-33.7,14.2-33.7,37.5V2807c0,16.8,12.3,29.1,29.1,29.1c17.5,0,29.8-12.3,29.8-29.1v-258.3L485.6,2805
	c14.9,20.1,25.9,31.7,48.5,31.7c19.4,0,31.1-14.2,31.1-36.9v-324.3C565.2,2458.7,553.6,2446.4,536.1,2446.4z"/>
<g>
	<path class="st1" d="M539,284.3c-18.6,0-32.2,13.6-32.2,32.2v290L275.9,325.2c-15.8-22.1-34-41.7-56.2-41.7
		c-23.6,0-37.2,15.7-37.2,41.5v358c0,18.6,13.6,32.2,32.2,32.2c19.3,0,32.9-13.6,32.9-32.2V397.4L483.2,681
		c16.5,22.2,28.6,35.1,53.7,35.1c21.5,0,34.4-15.7,34.4-40.8V316.5C571.2,297.9,558.3,284.3,539,284.3z"/>
	<g>
		<path class="st2" d="M664.6,716.5c-3.6,0-7.3-0.6-10.9-1.7c-18.5-6-28.7-25.9-22.6-44.4l117.7-362.2c6-18.5,25.9-28.7,44.4-22.6
			c18.5,6,28.7,25.9,22.6,44.4L698.1,692.1C693.3,707,679.4,716.5,664.6,716.5z"/>
	</g>
</g>
</svg>
